PathFileType	4	(X/Y/Z)	C:\Users\Biomechanik\SynologyDrive\AlexP\Athlete_03\Athlete_3_25_03_31\Squat_bw_02\marker_experimental.trc
DataRate	CameraRate	NumFrames	NumMarkers	Units	OrigDataRate	OrigDataStartFrame	OrigNumFrames
200.000000	200.000000	4	55	mm	200.000000	0	604
Frame#	Time	BL			BR			GLAB			RFHD			LFHD			C7			T6			SPINMOL			SPINM2			SPINM3			T12			BELTOL			BELT2			BELT3			SACROL			SACR2			SACR3			LTHOL			LTH2			LTH3			LSHAOL			LSHA2			LSHA3			LHEE			LTOE			LM5			RTHOL			RTH2			RTH3			RSHAOL			RSHA2			RSHA3			RHEE			RTOE			RM5			STRN			XIPH			LACR			LUAOL			LUA2			LUA3			LLAOL			LLA2			LLA3			LWRR			LWRU			RACR			RUAOL			RUA2			RUA3			RLAOL			RLA2			RLA3			RWRR			RWRU			
		X1	Y1	Z1	X2	Y2	Z2	X3	Y3	Z3	X4	Y4	Z4	X5	Y5	Z5	X6	Y6	Z6	X7	Y7	Z7	X8	Y8	Z8	X9	Y9	Z9	X10	Y10	Z10	X11	Y11	Z11	X12	Y12	Z12	X13	Y13	Z13	X14	Y14	Z14	X15	Y15	Z15	X16	Y16	Z16	X17	Y17	Z17	X18	Y18	Z18	X19	Y19	Z19	X20	Y20	Z20	X21	Y21	Z21	X22	Y22	Z22	X23	Y23	Z23	X24	Y24	Z24	X25	Y25	Z25	X26	Y26	Z26	X27	Y27	Z27	X28	Y28	Z28	X29	Y29	Z29	X30	Y30	Z30	X31	Y31	Z31	X32	Y32	Z32	X33	Y33	Z33	X34	Y34	Z34	X35	Y35	Z35	X36	Y36	Z36	X37	Y37	Z37	X38	Y38	Z38	X39	Y39	Z39	X40	Y40	Z40	X41	Y41	Z41	X42	Y42	Z42	X43	Y43	Z43	X44	Y44	Z44	X45	Y45	Z45	X46	Y46	Z46	X47	Y47	Z47	X48	Y48	Z48	X49	Y49	Z49	X50	Y50	Z50	X51	Y51	Z51	X52	Y52	Z52	X53	Y53	Z53	X54	Y54	Z54	X55	Y55	Z55	

1	0	960.685546875	36.16631698608411	-1933.680786132812	1063.21142578125	32.94744873046874	86.65598297119141	369.7671203613281	1583.539184570312	-1194.929809570312	320.2155456542969	1608.674682617188	-1131.114379882812	325.6005249023438	1607.231323242188	-1267.008911132812	144.2218780517578	1422.986938476562	-1202.378295898438	86.98589324951172	1254.748046875	-1211.560424804688	81.98371887207031	1217.570556640625	-1232.382690429688	76.68019866943359	1209.223022460938	-1182.805908203125	82.73289489746094	1153.212646484375	-1217.844604492188	91.04616546630859	1087.910278320312	-1216.35205078125	70.29158782958984	1061.475463867188	-1232.53662109375	71.60737609863281	1058.649658203125	-1182.284423828125	63.7859001159668	999.1477661132814	-1211.57421875	60.93399047851562	934.4470825195314	-1234.008911132812	62.35031509399414	931.5226440429689	-1182.631103515625	51.68025588989258	872.8255004882814	-1211.100341796875	138.9306030273438	678.7056274414064	-1424.107299804688	106.9038619995117	615.0084228515626	-1389.194091796875	143.4695434570312	617.1467285156251	-1423.107055664062	128.4065551757812	333.640594482422	-1505.679809570312	90.59814453125	264.386932373047	-1494.812255859375	134.8100433349609	273.1877746582032	-1518.103149414062	106.6759185791016	68.22858428955087	-1479.2783203125	314.3962707519531	51.29968261718759	-1544.682861328125	241.7181854248047	26.66073989868174	-1626.504028320312	119.0768051147461	689.6024780273439	-1011.605224609375	164.1045379638672	639.8952636718751	-968.496337890625	128.0623779296875	629.3262939453126	-1001.38525390625	92.05243682861328	348.7469177246094	-932.4512329101562	123.377555847168	285.3462524414063	-898.0623168945312	85.73914337158203	286.6723327636719	-930.6636962890625	91.10607147216797	63.85861206054693	-964.447021484375	286.0144348144531	47.78369140625006	-877.4033203125	201.1487274169922	38.89071273803716	-801.8812255859375	315.7713623046875	1326.526611328125	-1208.101440429688	333.1585998535156	1180.7236328125	-1208.807983398438	203.2379760742188	1405.460693359375	-1369.083984375	137.5271606445312	1285.756225585938	-1475.5478515625	104.1054763793945	1230.10986328125	-1488.430908203125	143.1917114257812	1238.38134765625	-1520.28759765625	173.56201171875	1180.132568359375	-1609.207885742188	252.0090789794922	1182.732177734375	-1620.05078125	219.441650390625	1220.995483398438	-1615.182006835938	281.1590270996094	1305.11328125	-1619.863037109375	284.3077087402344	1309.1748046875	-1542.351196289062	204.3626708984375	1397.410522460938	-1051.584350585938	150.0041809082031	1280.070556640625	-945.2377319335936	151.2057342529297	1232.752319335938	-898.9287719726561	121.5234146118164	1220.884521484375	-940.0253906249999	202.2484436035156	1192.087280273438	-796.1702880859374	194.5258331298828	1271.37060546875	-798.9890136718749	236.1961364746094	1243.9609375	-791.0937499999999	264.565185546875	1334.84033203125	-797.2880859374999	275.2588806152344	1336.345947265625	-874.3416137695311	
2	0.005	960.686279296875	36.16888809204114	-1933.675537109375	1063.2109375	32.94582366943359	86.65592193603516	369.849853515625	1583.575561523438	-1194.945922851562	320.2978515625	1608.700073242188	-1131.133911132812	325.6438903808594	1607.23828125	-1266.990844726562	144.3104553222656	1423.010620117188	-1202.363037109375	87.03292083740234	1254.791748046875	-1211.552612304688	82.01580047607422	1217.619873046875	-1232.377197265625	76.71284484863281	1209.270141601562	-1182.800903320312	82.75083160400391	1153.256469726562	-1217.84130859375	91.03813171386719	1087.960205078125	-1216.352416992188	70.2784423828125	1061.536010742188	-1232.541381835938	71.59489440917969	1058.703857421875	-1182.288330078125	63.74030303955078	999.2049560546876	-1211.582275390625	60.86597061157227	934.4509887695314	-1234.012573242188	62.28333282470703	931.5278930664064	-1182.63134765625	51.61803436279297	872.8168334960939	-1211.113403320312	138.8899078369141	678.6873168945314	-1424.13134765625	106.8854598999023	614.9850463867189	-1389.210815429688	143.4415740966797	617.1357421875001	-1423.135009765625	128.4029388427734	333.6395874023439	-1505.697875976562	90.59591674804688	264.3876953125001	-1494.817504882812	134.8074340820312	273.1872558593751	-1518.112670898438	106.6676864624023	68.22614288330087	-1479.289916992188	314.3905334472656	51.30792236328134	-1544.686279296875	241.7139434814453	26.65901947021494	-1626.504028320312	119.0656127929688	689.5874023437501	-1011.585021972656	164.1158905029297	639.9073486328126	-968.4646606445312	128.0794067382812	629.3208618164064	-1001.352111816406	92.13465881347656	348.7542724609376	-932.3942260742188	123.4623565673828	285.3389282226563	-898.0327758789062	85.81766510009766	286.6802368164063	-930.6229248046875	91.13477325439453	63.86577224731451	-964.4659423828125	286.0237731933594	47.7751197814942	-877.4029541015625	201.1534118652344	38.88530731201177	-801.892333984375	315.8529663085938	1326.55419921875	-1208.094848632812	333.197509765625	1180.72216796875	-1208.8046875	203.3244323730469	1405.492919921875	-1369.072265625	137.5988464355469	1285.810791015625	-1475.5478515625	104.1869201660156	1230.157470703125	-1488.427734375	143.2534332275391	1238.44189453125	-1520.297729492188	173.6327514648438	1180.200439453125	-1609.219848632812	252.0811157226562	1182.788818359375	-1620.048095703125	219.5186309814453	1221.05517578125	-1615.178344726562	281.2539367675781	1305.160766601562	-1619.83740234375	284.37939453125	1309.212768554688	-1542.323364257812	204.4520111083984	1397.435546875	-1051.569580078125	150.0616912841797	1280.123046875	-945.2226562499999	151.2550354003906	1232.803344726562	-898.8912353515624	121.5683212280273	1220.936157226562	-940.0048828124999	202.2926940917969	1192.123413085938	-796.1531982421874	194.6271514892578	1271.405029296875	-798.9943237304686	236.2642059326172	1244.000244140625	-791.0749511718749	264.6399230957031	1334.86181640625	-797.2887573242186	275.2921752929688	1336.377807617188	-874.3264160156249	
3	0.01	960.6873168945312	36.17160797119153	-1933.669311523438	1063.210083007812	32.94375610351562	86.65576934814453	369.9478149414062	1583.617919921875	-1194.963745117188	320.3947448730469	1608.729370117188	-1131.15576171875	325.6976623535156	1607.247924804688	-1266.970581054688	144.4149169921875	1423.039306640625	-1202.346557617188	87.08889770507812	1254.844116210938	-1211.544677734375	82.05390930175781	1217.678833007812	-1232.371826171875	76.75160217285156	1209.326782226562	-1182.796264648438	82.77082061767578	1153.310424804688	-1217.838745117188	91.02808380126953	1088.020874023438	-1216.353759765625	70.26235961914062	1061.609741210938	-1232.547607421875	71.57945251464844	1058.77001953125	-1182.293823242188	63.68502426147461	999.2746582031251	-1211.592651367188	60.78427505493164	934.4567871093751	-1234.017578125	62.20251846313477	931.5358276367189	-1182.632202148438	51.54315185546875	872.8099365234376	-1211.127563476562	138.8401031494141	678.6649780273439	-1424.16064453125	106.8635177612305	614.9560546875001	-1389.230590820312	143.4079284667969	617.1218261718751	-1423.168090820312	128.3989105224609	333.6384887695314	-1505.720092773438	90.59372711181641	264.3887939453126	-1494.823608398438	134.8044738769531	273.1862792968751	-1518.124389648438	106.6576309204102	68.22294616699227	-1479.303955078125	314.3833923339844	51.31789779663095	-1544.690551757812	241.7088165283203	26.65683555603037	-1626.504028320312	119.051383972168	689.5692138671876	-1011.559143066406	164.1297912597656	639.9223022460939	-968.4252319335938	128.0999908447266	629.3140258789064	-1001.310852050781	92.23602294921875	348.7634582519532	-932.3250732421875	123.5669174194336	285.3301391601563	-897.9976196289062	85.91319274902344	286.6900634765626	-930.5724487304688	91.16846466064453	63.87402725219732	-964.4880981445312	286.03466796875	47.76473999023443	-877.4027099609375	201.158935546875	38.88014984130864	-801.9046020507812	315.9500122070312	1326.583618164062	-1208.088012695312	333.2429809570312	1180.72021484375	-1208.801391601562	203.4271240234375	1405.53076171875	-1369.059936523438	137.6835479736328	1285.874267578125	-1475.548950195312	104.2765731811523	1230.218139648438	-1488.427001953125	143.3257904052734	1238.512329101562	-1520.310424804688	173.7156066894531	1180.278686523438	-1609.233764648438	252.1650543212891	1182.852783203125	-1620.044799804688	219.6086578369141	1221.123413085938	-1615.173950195312	281.365234375	1305.21435546875	-1619.808349609375	284.4631652832031	1309.255737304688	-1542.291381835938	204.5590667724609	1397.4638671875	-1051.554931640625	150.1305389404297	1280.182373046875	-945.2061767578124	151.3140106201172	1232.86083984375	-898.8546142578124	121.6207122802734	1220.996704101562	-939.9819946289061	202.3447723388672	1192.165283203125	-796.1339111328124	194.7393188476562	1271.446044921875	-798.9978637695311	236.3438568115234	1244.045043945312	-791.0537719726561	264.72900390625	1334.886108398438	-797.2897338867186	275.3358459472656	1336.412963867188	-874.3102416992186	
4	0.015	960.6885375976562	36.17441940307629	-1933.661987304688	1063.209106445312	32.94121551513671	86.655517578125	370.0611572265625	1583.666259765625	-1194.98291015625	320.5061950683594	1608.762451171875	-1131.1796875	325.7628173828125	1607.260986328125	-1266.948852539062	144.5352783203125	1423.0732421875	-1202.329345703125	87.15398406982422	1254.905517578125	-1211.536865234375	82.09815979003906	1217.747924804688	-1232.366943359375	76.79653930664062	1209.393310546875	-1182.792236328125	82.79248046875	1153.375122070312	-1217.837280273438	91.01584625244141	1088.092529296875	-1216.356201171875	70.24320220947266	1061.697631835938	-1232.555419921875	71.56085205078125	1058.848754882812	-1182.301025390625	63.61965179443359	999.3574218750001	-1211.605346679688	60.68849563598633	934.4648437500001	-1234.023681640625	62.10734558105469	931.5470581054689	-1182.6337890625	51.45515823364258	872.8058471679689	-1211.142700195312	138.7806701660156	678.6384277343751	-1424.195434570312	106.8379592895508	614.9210205078126	-1389.253540039062	143.3684234619141	617.1047363281251	-1423.20654296875	128.3945770263672	333.6373291015626	-1505.74658203125	90.59178161621094	264.3902587890626	-1494.830200195312	134.8012237548828	273.1847534179689	-1518.138549804688	106.6456451416016	68.21890258789071	-1479.320434570312	314.3747863769531	51.329689025879	-1544.69580078125	241.7028198242188	26.65411949157725	-1626.504028320312	119.0337753295898	689.5476684570314	-1011.526916503906	164.1463012695312	639.9401855468751	-968.3773193359375	128.1242523193359	629.3056030273439	-1001.260803222656	92.35774993896484	348.7745361328126	-932.243408203125	123.6924896240234	285.3198547363282	-897.9568481445312	86.02650451660156	286.7019653320313	-930.5115966796875	91.20700836181641	63.88330078125006	-964.5132446289062	286.0470581054688	47.75252914428717	-877.402587890625	201.1652679443359	38.87566375732427	-801.9178466796875	316.0625610351562	1326.613891601562	-1208.0810546875	333.2948913574219	1180.717529296875	-1208.797973632812	203.5463104248047	1405.574340820312	-1369.047241210938	137.7813262939453	1285.946655273438	-1475.551391601562	104.3730392456055	1230.292602539062	-1488.430053710938	143.4087219238281	1238.59228515625	-1520.32568359375	173.8104400634766	1180.36669921875	-1609.24951171875	252.2606201171875	1182.923095703125	-1620.040893554688	219.7115478515625	1221.19921875	-1615.169189453125	281.4928283691406	1305.27294921875	-1619.776245117188	284.558837890625	1309.303344726562	-1542.255859375	204.6841888427734	1397.4951171875	-1051.541137695312	150.2111053466797	1280.248046875	-945.1888427734374	151.3826293945312	1232.924560546875	-898.8200073242186	121.6804809570312	1221.066040039062	-939.9572753906249	202.4046478271484	1192.212524414062	-796.1127319335936	194.8608856201172	1271.493896484375	-798.9992675781249	236.4348907470703	1244.095092773438	-791.0306396484374	264.8327331542969	1334.91259765625	-797.2911376953124	275.3916625976562	1336.450561523438	-874.2937011718749	
